<?xml version="1.0" encoding="iso-8859-1"?>
<!-- Generator: Adobe Illustrator 19.0.0, SVG Export Plug-In . SVG Version: 6.00 Build 0)  -->
<svg version="1.1" id="Capa_1" xmlns="http://www.w3.org/2000/svg" xmlns:xlink="http://www.w3.org/1999/xlink" x="0px" y="0px"
	 viewBox="0 0 512 512" style="enable-background:new 0 0 512 512;" xml:space="preserve">
<circle style="fill:#FFAF10;" cx="256" cy="256" r="245"/>
<path style="fill:#FE3745;" d="M142.463,223.196H7c-3.85,0-7,3.15-7,7v125.971c0,3.85,3.15,7,7,7h76.1l12.536,21.711
	c1.925,3.334,5.075,3.334,7,0l12.536-21.711h27.292V223.196H142.463z"/>
<path style="fill:#B7092B;" d="M19.842,356.167V230.196c0-3.85,3.15-7,7-7H7c-3.85,0-7,3.15-7,7v125.971c0,3.85,3.15,7,7,7h19.842
	C22.992,363.167,19.842,360.017,19.842,356.167z"/>
<g>
	<path style="fill:#FFFFFF;" d="M142.463,256.5H49.135c-4.142,0-7.5,3.358-7.5,7.5s3.358,7.5,7.5,7.5h93.328V256.5z"/>
	<path style="fill:#FFFFFF;" d="M142.463,283.499H49.135c-4.142,0-7.5,3.358-7.5,7.5s3.358,7.5,7.5,7.5h93.328V283.499z"/>
	<path style="fill:#FFFFFF;" d="M105.151,325.497H49.135c-4.142,0-7.5-3.358-7.5-7.5s3.358-7.5,7.5-7.5h56.016
		c4.142,0,7.5,3.358,7.5,7.5S109.294,325.497,105.151,325.497z"/>
</g>
<path style="fill:#445EA0;" d="M319.042,155.009c-3.309,0-6-2.691-6-6V49.096H151.463c-5.5,0-10,4.5-10,10v390.868
	c0,5.5,4.5,10,10,10h209.074c5.5,0,10-4.5,10-10V155.009H319.042z"/>
<path style="fill:#293D7C;" d="M161.305,449.964V59.096c0-5.5,4.5-10,10-10h-19.842c-5.5,0-10,4.5-10,10v390.868c0,5.5,4.5,10,10,10
	h19.842C165.805,459.964,161.305,455.464,161.305,449.964z"/>
<path style="fill:#EEF6FF;" d="M319.042,155.009c-3.309,0-6-2.691-6-6v-43.563H141.463v298.169h229.074V155.009H319.042z"/>
<rect x="141.46" y="105.44" style="fill:#D9EAFC;" width="19.842" height="298.17"/>
<path style="fill:#293D7C;" d="M279.65,439.815c0,2.75-2.25,5-5,5h-37.301c-2.75,0-5-2.25-5-5v-16.723c0-2.75,2.25-5,5-5h37.301
	c2.75,0,5,2.25,5,5V439.815z"/>
<path style="fill:#1A2B63;" d="M252.191,439.815v-16.723c0-2.75,2.25-5,5-5h-19.842c-2.75,0-5,2.25-5,5v16.723c0,2.75,2.25,5,5,5
	h19.842C254.441,444.815,252.191,442.565,252.191,439.815z"/>
<path style="fill:#293D7C;" d="M286.922,84.112c0,2.75-2.25,5-5,5h-51.844c-2.75,0-5-2.25-5-5v-8.178c0-2.75,2.25-5,5-5h51.844
	c2.75,0,5,2.25,5,5V84.112z"/>
<path style="fill:#1A2B63;" d="M244.92,84.112v-8.178c0-2.75,2.25-5,5-5h-19.842c-2.75,0-5,2.25-5,5v8.178c0,2.75,2.25,5,5,5h19.842
	C247.17,89.112,244.92,86.862,244.92,84.112z"/>
<path style="fill:#293D7C;" d="M194.8,80.023c0,5.021-4.069,9.089-9.089,9.089l0,0c-5.021,0-9.089-4.068-9.089-9.089l0,0
	c0-5.021,4.068-9.089,9.089-9.089l0,0C190.731,70.935,194.8,75.003,194.8,80.023L194.8,80.023z"/>
<path style="fill:#FFAF10;" d="M346.132,351.48H311.5v35.144h34.632c2.75,0,5-2.25,5-5V356.48
	C351.132,353.73,348.882,351.48,346.132,351.48z"/>
<path style="fill:#91E0E8;" d="M165.867,351.48c-2.75,0-5,2.25-5,5v25.144c0,2.75,2.25,5,5,5H312.5V351.48H165.867z"/>
<path style="fill:#5DC1D8;" d="M180.71,381.624V356.48c0-2.75,2.25-5,5-5h-19.842c-2.75,0-5,2.25-5,5v25.144c0,2.75,2.25,5,5,5
	h19.842C182.96,386.624,180.71,384.374,180.71,381.624z"/>
<path style="fill:#FFE2B8;" d="M304.441,185.518c0,2.75-2.25,5-5,5H165.867c-2.75,0-5-2.25-5-5v-49.6c0-2.75,2.25-5,5-5h133.574
	c2.75,0,5,2.25,5,5V185.518z"/>
<path style="fill:#FFC987;" d="M180.71,185.518v-49.6c0-2.75,2.25-5,5-5h-19.842c-2.75,0-5,2.25-5,5v49.6c0,2.75,2.25,5,5,5h19.842
	C182.96,190.518,180.71,188.268,180.71,185.518z"/>
<path style="fill:#91E0E8;" d="M351.132,258.121c0,2.75-2.25,5-5,5H212.559c-2.75,0-5-2.25-5-5v-49.6c0-2.75,2.25-5,5-5h133.573
	c2.75,0,5,2.25,5,5L351.132,258.121L351.132,258.121z"/>
<path style="fill:#5DC1D8;" d="M227.401,258.121v-49.6c0-2.75,2.25-5,5-5h-19.842c-2.75,0-5,2.25-5,5v49.6c0,2.75,2.25,5,5,5h19.842
	C229.651,263.121,227.401,260.871,227.401,258.121z"/>
<path style="fill:#FFE2B8;" d="M304.441,330.726c0,2.75-2.25,5-5,5H165.867c-2.75,0-5-2.25-5-5v-49.6c0-2.75,2.25-5,5-5h133.574
	c2.75,0,5,2.25,5,5V330.726z"/>
<path style="fill:#FFC987;" d="M180.71,330.726v-49.6c0-2.75,2.25-5,5-5h-19.842c-2.75,0-5,2.25-5,5v49.6c0,2.75,2.25,5,5,5h19.842
	C182.96,335.726,180.71,333.476,180.71,330.726z"/>
<path style="fill:#91E0E8;" d="M505,16.038H319.042c-3.85,0-7,3.15-7,7v125.971c0,3.85,3.15,7,7,7h74.543l14.936,25.87
	c1.925,3.334,5.075,3.334,7,0l14.936-25.87H505c3.85,0,7-3.15,7-7V23.038C512,19.188,508.85,16.038,505,16.038z"/>
<path style="fill:#5DC1D8;" d="M331.884,149.009V23.038c0-3.85,3.15-7,7-7h-19.842c-3.85,0-7,3.15-7,7v125.971c0,3.85,3.15,7,7,7
	h19.842C335.034,156.009,331.884,152.859,331.884,149.009z"/>
<g>
	<path style="fill:#FFFFFF;" d="M462.021,67.5h-100c-4.142,0-7.5-3.358-7.5-7.5s3.358-7.5,7.5-7.5h100c4.142,0,7.5,3.358,7.5,7.5
		S466.163,67.5,462.021,67.5z"/>
	<path style="fill:#FFFFFF;" d="M462.021,94.499h-100c-4.142,0-7.5-3.358-7.5-7.5s3.358-7.5,7.5-7.5h100c4.142,0,7.5,3.358,7.5,7.5
		S466.163,94.499,462.021,94.499z"/>
	<path style="fill:#FFFFFF;" d="M418.037,121.497h-56.016c-4.142,0-7.5-3.358-7.5-7.5s3.358-7.5,7.5-7.5h56.016
		c4.142,0,7.5,3.358,7.5,7.5S422.179,121.497,418.037,121.497z"/>
</g>
<g>
</g>
<g>
</g>
<g>
</g>
<g>
</g>
<g>
</g>
<g>
</g>
<g>
</g>
<g>
</g>
<g>
</g>
<g>
</g>
<g>
</g>
<g>
</g>
<g>
</g>
<g>
</g>
<g>
</g>
</svg>
