<svg xmlns="http://www.w3.org/2000/svg" xmlns:xlink="http://www.w3.org/1999/xlink" width="834.2" height="741.02" viewBox="0 0 834.2 741.02"><defs><style>.cls-1{isolation:isolate;}.cls-2{fill:#2b3990;opacity:0.07;mix-blend-mode:multiply;}.cls-3{fill:#8ce2ff;}.cls-4{fill:#ecf5ff;}.cls-5{fill:url(#linear-gradient);}.cls-6{fill:#8cbef1;}.cls-7{fill:url(#linear-gradient-2);}.cls-8{fill:#6aa5ec;}.cls-9{fill:url(#linear-gradient-3);}.cls-10{fill:#f7ca82;}.cls-11{fill:#0087e2;}.cls-12{fill:#c6704e;}.cls-13{fill:#b64d50;}.cls-14{fill:#f7b378;}.cls-15{fill:#506bd6;}.cls-16{fill:#f1f2f2;}.cls-17{fill:#ec6b8c;}.cls-18{fill:#494da5;}.cls-19{fill:#734bab;}.cls-20{fill:url(#linear-gradient-4);}.cls-21{fill:#47de8e;}.cls-22{fill:#fe86db;}.cls-23{fill:#fe57db;}.cls-24{fill:url(#linear-gradient-5);}.cls-25{fill:url(#linear-gradient-6);}.cls-26{fill:#fff;}.cls-27{fill:url(#linear-gradient-7);}.cls-28{fill:url(#linear-gradient-8);}.cls-29{fill:url(#linear-gradient-9);}.cls-30{fill:url(#linear-gradient-10);}.cls-31{fill:#ffa082;}.cls-32{fill:#ffac82;}.cls-33{fill:#bcbec0;}.cls-34{fill:#8662bf;}.cls-35{fill:#40a6ec;}.cls-36{fill:#6ec7ef;}.cls-37{fill:#ffc838;}</style><linearGradient id="linear-gradient" x1="56.37" y1="402.45" x2="792.69" y2="402.45" gradientUnits="userSpaceOnUse"><stop offset="0" stop-color="#ffb138"/><stop offset="1" stop-color="#f59670"/></linearGradient><linearGradient id="linear-gradient-2" x1="412.34" y1="532.92" x2="439.99" y2="532.92" gradientTransform="matrix(-1, 0, 0, 1, 617.61, 0)" gradientUnits="userSpaceOnUse"><stop offset="0" stop-color="#6aa5ec"/><stop offset="0.32" stop-color="#6aa0ec"/><stop offset="0.68" stop-color="#6b93ec"/><stop offset="1" stop-color="#6c80ec"/></linearGradient><linearGradient id="linear-gradient-3" x1="504.6" y1="185.92" x2="612.57" y2="185.92" gradientUnits="userSpaceOnUse"><stop offset="0" stop-color="#8ce2ff"/><stop offset="0.31" stop-color="#86d9fd"/><stop offset="0.82" stop-color="#77c0f6"/><stop offset="1" stop-color="#71b5f3"/></linearGradient><linearGradient id="linear-gradient-4" x1="516.69" y1="368.87" x2="289.05" y2="431.13" xlink:href="#linear-gradient-3"/><linearGradient id="linear-gradient-5" x1="295.29" y1="503.9" x2="97.52" y2="356.21" gradientUnits="userSpaceOnUse"><stop offset="0" stop-color="#224099"/><stop offset="0.11" stop-color="#25469c"/><stop offset="0.25" stop-color="#2d57a6"/><stop offset="0.41" stop-color="#3b74b7"/><stop offset="0.59" stop-color="#4d9bcd"/><stop offset="0.75" stop-color="#61c5e5"/><stop offset="1" stop-color="#6ccce6"/></linearGradient><linearGradient id="linear-gradient-6" x1="235.21" y1="300.35" x2="338.86" y2="578.96" xlink:href="#linear-gradient-5"/><linearGradient id="linear-gradient-7" x1="2481.96" y1="405.5" x2="2490.74" y2="-13.3" gradientTransform="matrix(-1, 0, 0, 1, 2541.84, 0)" gradientUnits="userSpaceOnUse"><stop offset="0" stop-color="#ec6b8c"/><stop offset="1" stop-color="#ff7c89"/></linearGradient><linearGradient id="linear-gradient-8" x1="2372.45" y1="233.01" x2="2467.15" y2="90.97" gradientTransform="matrix(-1, 0, 0, 1, 2502.5, 0)" gradientUnits="userSpaceOnUse"><stop offset="0" stop-color="#f05a28"/><stop offset="1" stop-color="#f9ec31"/></linearGradient><linearGradient id="linear-gradient-9" x1="2372.45" y1="340.38" x2="2467.15" y2="198.34" xlink:href="#linear-gradient-8"/><linearGradient id="linear-gradient-10" x1="17.29" y1="317.6" x2="160.74" y2="102.43" gradientTransform="matrix(1, 0, 0, 1, 0, 0)" xlink:href="#linear-gradient-8"/></defs><title>Asset 2</title><g class="cls-1"><g id="Layer_2" data-name="Layer 2"><g id="OBJECTS"><path class="cls-2" d="M808.54,490.46l-424.62,244a49.29,49.29,0,0,1-49.2,0L8,545.87a16.07,16.07,0,0,1,0-27.85L443.37,267.88a42.46,42.46,0,0,1,42.38,0l322.82,186.3A20.91,20.91,0,0,1,808.54,490.46Z"/><path class="cls-3" d="M794.31,385.77,485.75,207.7a42.46,42.46,0,0,0-42.38,0L31.94,444.08H0v27.58H0a15.91,15.91,0,0,0,8,14L334.72,674.2a49.29,49.29,0,0,0,49.2,0l424.62-244A20.68,20.68,0,0,0,819,413.35h0V385.77Z"/><path class="cls-4" d="M808.54,402.93l-424.62,244a49.3,49.3,0,0,1-49.2,0L8,458.34a16.06,16.06,0,0,1,0-27.84L443.37,180.36a42.46,42.46,0,0,1,42.38,0L808.57,366.7A20.91,20.91,0,0,1,808.54,402.93Z"/><polygon class="cls-5" points="792.69 379.88 384.05 614.14 56.37 425 465 190.77 792.69 379.88"/><path class="cls-6" d="M174.89,523.73c9.25-5.38,24.31-5.38,33.63,0s9.36,14.1.11,19.48-24.31,5.38-33.63,0S165.64,529.11,174.89,523.73Z"/><path class="cls-7" d="M177.62,533.13a2.53,2.53,0,0,0,1.27,2.21l10,5.82a4.26,4.26,0,0,0,4.27,0L204,534.92a2.55,2.55,0,0,0,0-4.41l-10-5.82a4.27,4.27,0,0,0-4.27,0l-10.83,6.25A2.52,2.52,0,0,0,177.62,533.13Zm2.44,0a.1.1,0,0,1,.05-.09l10.83-6.25a1.79,1.79,0,0,1,.9-.24,1.81,1.81,0,0,1,.91.25l10,5.82a.1.1,0,0,1,0,.18l-10.83,6.25a1.82,1.82,0,0,1-1.82,0l-10-5.82A.1.1,0,0,1,180.06,533.13Z"/><polygon class="cls-8" points="788.13 414.66 698.11 466.39 698.12 493.71 788.13 441.96 788.13 414.66"/><polygon class="cls-8" points="417.4 627.72 417.41 655.04 413.03 657.55 413.02 630.24 417.4 627.72"/><polygon class="cls-8" points="497.72 581.56 497.73 608.88 493.35 611.39 493.34 584.08 497.72 581.56"/><polygon class="cls-8" points="579.26 534.7 579.27 562.02 574.89 564.53 574.88 537.21 579.26 534.7"/><polygon class="cls-8" points="226.25 589.43 226.25 606.57 220.24 603.09 220.24 585.93 226.25 589.43"/><polygon class="cls-8" points="236.81 612.68 230.8 609.2 230.8 592.04 236.81 595.54 236.81 612.68"/><polygon class="cls-8" points="247.37 618.78 241.36 615.3 241.36 598.14 247.37 601.64 247.37 618.78"/><polygon class="cls-8" points="257.94 624.89 251.92 621.41 251.92 604.25 257.94 607.74 257.94 624.89"/><polygon class="cls-8" points="268.5 630.99 262.48 627.51 262.48 610.35 268.5 613.85 268.5 630.99"/><polygon class="cls-8" points="279.06 637.1 273.05 633.62 273.05 616.46 279.06 619.96 279.06 637.1"/><polygon class="cls-8" points="289.62 643.2 283.61 639.72 283.61 622.56 289.62 626.06 289.62 643.2"/><polygon class="cls-8" points="300.18 649.31 294.17 645.83 294.17 628.67 300.18 632.16 300.18 649.31"/><polygon class="cls-8" points="310.74 655.41 304.73 651.93 304.73 634.77 310.74 638.27 310.74 655.41"/><polygon class="cls-8" points="321.3 661.52 315.29 658.03 315.29 640.88 321.3 644.37 321.3 661.52"/><ellipse class="cls-2" cx="215.53" cy="394.04" rx="51.53" ry="15.69"/><path class="cls-3" d="M497.49,54.69l92.9-53.62a7.8,7.8,0,0,1,7.78,0h0l.08,0,0,0,14.8,8.59L602.2,48.57V290.72a26.09,26.09,0,0,1-13,22.59l-78.79,45.48L506,370.48l-14.9-8.65h0a14.06,14.06,0,0,1-7.22-12.36V78.18A27.13,27.13,0,0,1,497.49,54.69Z"/><path class="cls-4" d="M498.83,86.84V358.12a14.19,14.19,0,0,0,21.29,12.29L604.07,322a26.08,26.08,0,0,0,13-22.59V16.54A7.88,7.88,0,0,0,605.3,9.72L512.4,63.34A27.13,27.13,0,0,0,498.83,86.84Z"/><polygon class="cls-9" points="504.6 93.71 504.6 340.46 612.57 278.13 612.57 31.39 504.6 93.71"/><polygon class="cls-6" points="543.35 52.38 538.93 66.16 574.24 45.78 567.98 38.16 543.35 52.38"/><path class="cls-6" d="M555.79,322.61v15a2.27,2.27,0,0,0,3.41,2l11.67-6.71a4.18,4.18,0,0,0,2.09-3.62V312.4a1.26,1.26,0,0,0-1.89-1.09L558,318.85A4.34,4.34,0,0,0,555.79,322.61Z"/><polygon class="cls-4" points="511.16 99.22 511.16 101.53 531.66 89.67 531.66 87.36 511.16 99.22"/><polygon class="cls-4" points="511.16 106.26 531.66 94.4 531.66 92.09 511.16 103.96 511.16 106.26"/><polygon class="cls-4" points="525.63 100.32 511.16 108.69 511.16 111 525.63 102.62 525.63 100.32"/><polygon class="cls-4" points="511.16 120.46 531.66 108.6 531.66 106.29 511.16 118.15 511.16 120.46"/><polygon class="cls-4" points="528.8 103.22 511.16 113.42 511.16 115.73 528.8 105.52 528.8 103.22"/><polygon class="cls-4" points="511.16 125.19 523.38 118.12 523.38 115.81 511.16 122.88 511.16 125.19"/><polygon class="cls-4" points="540.98 280.04 540.98 282.35 561.49 270.49 561.49 268.18 540.98 280.04"/><polygon class="cls-4" points="540.98 287.08 561.49 275.22 561.49 272.92 540.98 284.77 540.98 287.08"/><polygon class="cls-4" points="555.46 281.14 540.98 289.51 540.98 291.81 555.46 283.44 555.46 281.14"/><polygon class="cls-4" points="540.98 301.28 561.49 289.42 561.49 287.11 540.98 298.97 540.98 301.28"/><polygon class="cls-4" points="558.62 284.04 540.98 294.24 540.98 296.55 558.62 286.35 558.62 284.04"/><polygon class="cls-4" points="540.98 306.01 553.21 298.94 553.21 296.63 540.98 303.7 540.98 306.01"/><polygon class="cls-4" points="570.1 264.32 570.1 266.63 590.61 254.77 590.61 252.46 570.1 264.32"/><polygon class="cls-4" points="570.1 271.36 590.61 259.5 590.61 257.19 570.1 269.06 570.1 271.36"/><polygon class="cls-4" points="584.58 265.42 570.1 273.79 570.1 276.1 584.58 267.72 584.58 265.42"/><polygon class="cls-4" points="570.1 285.56 590.61 273.7 590.61 271.39 570.1 283.25 570.1 285.56"/><polygon class="cls-4" points="587.75 268.32 570.1 278.52 570.1 280.83 587.75 270.62 587.75 268.32"/><polygon class="cls-4" points="570.1 290.29 582.33 283.22 582.33 280.91 570.1 287.99 570.1 290.29"/><polygon class="cls-4" points="511.16 296.56 511.16 298.86 531.66 287 531.66 284.69 511.16 296.56"/><polygon class="cls-4" points="511.16 303.59 531.66 291.74 531.66 289.43 511.16 301.29 511.16 303.59"/><polygon class="cls-4" points="525.63 297.65 511.16 306.02 511.16 308.33 525.63 299.95 525.63 297.65"/><polygon class="cls-4" points="511.16 317.79 531.66 305.93 531.66 303.62 511.16 315.48 511.16 317.79"/><polygon class="cls-4" points="528.8 300.55 511.16 310.75 511.16 313.06 528.8 302.86 528.8 300.55"/><polygon class="cls-4" points="511.16 322.52 523.38 315.45 523.38 313.14 511.16 320.22 511.16 322.52"/><path class="cls-4" d="M554.71,136.85c11.71-6.76,21.35-6.36,21.86-6.33,12.31-1,13.74,16.22,12.58,21.73s.13,6.51.71,7.56,4.23,4.57,5.26,6.48-2.45,5.16-3.53,6.51-.22,2.86.13,4.27-2,4.45-2.11,4.61c.95.84.55,2.45.33,3.5a16.41,16.41,0,0,1-1.74,3.41c.58,7.06-2.64,10.41-7.54,13.24-2.08,1.2-4.45,2.3-7,3.56l-.46.25c-8,4.63-8.29,20.94-8.3,21.79l-36.26,20.93c13.2-31.18,5.54-46.39,5.13-47.2-6.66-5.37-6.15-16.42-6.12-17,.63-21.29,13.32-35.87,14-36.64A53.45,53.45,0,0,1,554.71,136.85Z"/><path class="cls-10" d="M832.29,301.13c-3-4.27-6.2-.77-6.2-.77-4.24-1.46-6.35,8-6.35,8l5.92,7.14C835.84,312.86,835.29,305.41,832.29,301.13Z"/><path class="cls-10" d="M667.11,302.81c3.34-3.73,6,0,6,0,4.21-.92,5.15,8.36,5.15,8.36l-6.45,6.14C662.41,313.58,663.77,306.54,667.11,302.81Z"/><path class="cls-11" d="M766.38,325.54s32,2.9,53.51-19.77l6.56,9.91s-21.7,29.08-60.58,26Z"/><path class="cls-12" d="M808,459.84s.28,7.07,3.92,8.15,9.38,3,7.89,9.12c-1.43,5.91-8.92,3.39-10.41,2.59S800,475.91,797,474.82s-2.78-6.75-1.69-11.81S808,459.84,808,459.84Z"/><path class="cls-12" d="M785.91,469.09s.13,6.93,3.76,8,11.42,4.19,8,9.25-8.81,3.52-10.3,2.72S777,485.11,774,484s-2.63-6.2-1.53-11.26S785.91,469.09,785.91,469.09Z"/><path class="cls-13" d="M767.75,385.31s23.69,13.34,38,27.63c0,0,5.83,27.39,4.84,48,0,0-5.16,7.41-17.86,4.76L788,419.88l-38.34-20.41-3.35-12.9Z"/><path class="cls-13" d="M746.29,391.26s34.65,24.46,38.36,30.15c0,0,5.28,34.66,4.35,50.14,0,0-10.19,7.54-19.05,2.78,0,0-5.28-40.35-5.68-44.46,0,0-26.53-11.22-30.77-15.85s-6.6-16.75-4.6-20.68Z"/><path class="cls-14" d="M740.1,319.22l-.59,8s1.45,5.49,8.6,6.28,9.86-4.57,9.86-4.57v-6.68Z"/><path class="cls-15" d="M739.5,327.23s-5,1.3-15.58,4.83a429.31,429.31,0,0,0,5,61.28s22.36,4.22,39.57-8c0,0,.45-39.92-2.1-59.77a26,26,0,0,0-8.42-.39Z"/><path class="cls-10" d="M738.32,316.22s2.76,12.28,14.14,12.09c13.12-.22,13.64-17.37,11.84-25.38-1.68-7.49-10.84-16.28-19.83-10.43C737.72,296.89,735.53,305,738.32,316.22Z"/><path class="cls-12" d="M748.47,288.76s-11.49.68-13.83,15c0,0-1.73,11.87,7.21,19.58,0,0-.31-4.91.34-5.87s-1.95-3.73-1.71-5.61.46-5.31,2.62-3.65l.78.78a1,1,0,0,0,1.77-.85,6.58,6.58,0,0,1,.56-4c1.45-2.23,9.73,1.76,18.57,0a6.65,6.65,0,0,0,1.32-5.13S763.55,285.46,748.47,288.76Z"/><polygon class="cls-14" points="742.62 325.33 750.03 327.1 757.96 329.58 757.28 333.16 753.73 334.74 746.19 331.3 741.84 327.1 742.62 325.33"/><polygon class="cls-16" points="739.69 324.71 737.77 327.65 750.01 339.41 753.73 334.74 739.69 324.71"/><polygon class="cls-16" points="753.73 334.74 758.16 338.66 760.24 325.33 753.73 334.74"/><path class="cls-12" d="M745.64,308.33s-1.46,12,2.31,14.83a16.11,16.11,0,0,0,13.49.7s3.12,3.63.5,6-13.67,1.84-16.24-.91-3.19-14.83-1.82-20l1.14-1.21Z"/><path class="cls-17" d="M748.41,307c9.93,1.48,14.63-.23,16.32-1.49a1.06,1.06,0,0,1,1.33.15l6.54,3.65-19.68,11.44-6.36-3.91a1.16,1.16,0,0,1-.23-1.14l1-8.18A.94.94,0,0,1,748.41,307Z"/><path class="cls-18" d="M754.77,310.78,772,309a.63.63,0,0,1,.76.72l-1.05,8.19a1.39,1.39,0,0,1-1.12,1l-17,2a.61.61,0,0,1-.73-.7l.82-8.44A1.47,1.47,0,0,1,754.77,310.78Z"/><path class="cls-19" d="M747.22,308.52s-7.47-3.47-11.17-9.92a3.21,3.21,0,0,0-1.06,3.33,28.7,28.7,0,0,0,11.81,9.93Z"/><path class="cls-11" d="M723.93,332.06s-22.8,5.27-45.49-23.05c0,0-4.69.34-7.44,8.75,0,0,15.91,33.88,54.38,33.15C725.38,350.91,731.48,336.45,723.93,332.06Z"/><path class="cls-2" d="M482.92,452.5l-.14-.08-77.5-44.83h0a3.76,3.76,0,0,0-3.76,0l-71.24,41.13-15.94,9.19a2.06,2.06,0,0,0,0,3.56l2.54,1.47,77.5,44.83h0a3.75,3.75,0,0,0,3.76,0l75-43.32,9.75-5.62A3.65,3.65,0,0,0,482.92,452.5Z"/><path class="cls-20" d="M473.18,375.76l-12.56,8L455,389,325.9,386l-3.57-3.29-15.84-3.33v22.5h0a2,2,0,0,0,1,1.83l2.54,1.47L387.55,450h0a3.75,3.75,0,0,0,3.75,0l75-43.32,9.75-5.62a3.62,3.62,0,0,0,1.82-3.28h0v-22.5Z"/><path class="cls-4" d="M476.08,372.24l-.14-.08-77.5-44.83h0a3.75,3.75,0,0,0-3.76,0l-71.24,41.13-15.94,9.19a2.06,2.06,0,0,0,0,3.56l2.54,1.47,77.5,44.83h0a3.75,3.75,0,0,0,3.75,0l75-43.32,9.75-5.62A3.65,3.65,0,0,0,476.08,372.24Z"/><polygon class="cls-21" points="263.14 193.7 263.14 292.44 415.79 204.12 415.79 105.39 263.14 193.7"/><polygon class="cls-4" points="376.73 141.03 376.73 137.42 409.07 118.71 409.07 122.32 376.73 141.03"/><polygon class="cls-4" points="376.73 147.94 376.73 144.34 409.07 125.63 409.07 129.23 376.73 147.94"/><polygon class="cls-4" points="376.73 154.86 376.73 151.25 409.07 132.55 409.07 136.15 376.73 154.86"/><polygon class="cls-4" points="358.59 148.09 358.59 151.69 326.25 170.4 326.25 166.8 358.59 148.09"/><polygon class="cls-4" points="358.59 158.6 326.25 177.32 326.25 173.71 358.59 155 358.59 158.6"/><polygon class="cls-4" points="358.59 165.52 326.25 184.23 326.25 180.63 358.59 161.92 358.59 165.52"/><polygon class="cls-4" points="358.59 182.86 326.25 201.57 326.25 197.96 358.59 179.25 358.59 182.86"/><polygon class="cls-4" points="358.59 189.77 326.25 208.48 326.25 204.88 358.59 186.17 358.59 189.77"/><polygon class="cls-4" points="358.59 196.69 326.25 215.4 326.25 211.79 358.59 193.08 358.59 196.69"/><polygon class="cls-4" points="358.59 214.02 326.25 232.73 326.25 229.13 358.59 210.42 358.59 214.02"/><polygon class="cls-4" points="358.59 220.94 326.25 239.65 326.25 236.05 358.59 217.34 358.59 220.94"/><polygon class="cls-4" points="358.59 227.86 326.25 246.56 326.25 242.96 358.59 224.25 358.59 227.86"/><polygon class="cls-4" points="376.73 161.77 376.73 158.17 409.07 139.46 409.07 143.06 376.73 161.77"/><polygon class="cls-4" points="302.16 222.63 313.59 216.02 313.59 253.45 302.16 260.07 302.16 222.63"/><polygon class="cls-4" points="287.04 211.11 298.47 204.49 298.47 262.22 287.04 268.83 287.04 211.11"/><polygon class="cls-4" points="271.92 199.65 283.36 193.03 283.36 270.98 271.92 277.59 271.92 199.65"/><path class="cls-4" d="M390,187.09V166.15c.36-.23.71-.47,1.07-.68,9.92-5.73,18-1.13,18,10.27s-8,25.29-17.91,31-18,1.13-18-10.27c0-.17,0-.34,0-.51Z"/><path class="cls-4" d="M262.53,192.64l-.61.35V294.56L416.4,205.18l.61-.35V103.26Zm152,10.78-150.19,86.9V194.4l150.19-86.9Z"/><polygon class="cls-17" points="372.52 159.56 382.03 156.44 382.77 162.05 379.26 167.44 372.52 159.56"/><polygon class="cls-18" points="373.68 159.91 380.84 157.65 380.84 156.84 372.52 159.56 373.68 159.91"/><path class="cls-22" d="M416.89,185.2s14.89,6.47,0,26.17Z"/><path class="cls-13" d="M409,363.93s-2.06,2-5.34,0a18,18,0,0,0-6.77-2.52,10.63,10.63,0,0,0-4.06.12c-1,.23-2.94.86-3.35,1.87-1.11,2.73.26,5.14,2.3,6.9,5.53,4.77,12.21,8.35,19.58,9,3.16.28,7.05.34,10-1,0,0,.49-12.07-.86-13.64Z"/><path class="cls-18" d="M415.55,251.18s4.06,15.34,3.61,27.29l3.49,84.92s-6.81,6.05-19.89,3.8l-4.3-115.12Z"/><path class="cls-13" d="M382,371.29s-2.06,2-5.34,0a18.06,18.06,0,0,0-6.78-2.52,10.66,10.66,0,0,0-4.06.12c-1,.24-2.94.86-3.35,1.87-1.11,2.73.26,5.14,2.3,6.9,5.53,4.77,12.21,8.35,19.58,9,3.16.28,7.05.34,10-1,0,0,.49-12.07-.86-13.65Z"/><path class="cls-18" d="M401.77,249.93s2.28,10-1,24.13l-5.28,99.05a29.1,29.1,0,0,1-20.07,0l2.89-117.2Z"/><path class="cls-23" d="M377.11,252.52c-.08-3,2.08-17.92,2.08-17.92h0c-.54-20.22.16-40.48.16-40.48l11.45-7.48,17-3.95,6.25,1.57a5.9,5.9,0,0,1,5.43,4.82c.89,4.79,1.88,12.49.59,18.8-.85,4.16-1.78,11.81-2.57,19.3-.08.78-1.18,15.54-.6,21.56a3,3,0,0,1-1.33,2.45c-11.28,10.37-35.3,7-35.3,7C377.54,257.9,377.17,254.88,377.11,252.52Z"/><path class="cls-10" d="M336.79,216.79c1.61-.54,3.29-.49,6.43,0a10.34,10.34,0,0,0-2.38-1.54c-1.36-.61-.45-1.31-.45-1.31a16.25,16.25,0,0,1,6,2.07,32.49,32.49,0,0,0,3.39,2l-.08.56.91.23S348,225,346.4,225.18s-4.53-2.32-6.2-2.54c-2.33-.3-4.1.9-5.75.75s-2.22-2.18-2.37-3.16S334.76,217.47,336.79,216.79Z"/><path class="cls-22" d="M350,217.42l18.5,5.79s3.16-18.27,3.91-22,6.95-7.07,6.95-7.07c9.5,4.81,6.65,12.33,6.65,12.33l-7.74,26.19a6.33,6.33,0,0,1-8.54,4l-24.54-10.38C345,218.63,350,217.42,350,217.42Z"/><path class="cls-10" d="M405.41,146.23c-4.07-.66-9.61-.79-13.54.37-6.61,2-10.22,6.17-11.81,12.44s-2.08,16.85,1.54,22.72c2.26,3.67,7.3,3,10.89,2,4.35-1.15,10-3,13.6-5.72,5-3.75,7.6-12,7.9-17.91C414.25,155,411.61,147.25,405.41,146.23Z"/><path class="cls-14" d="M407.79,176.52a13.28,13.28,0,0,1-1.69,1.55c-3.57,2.69-9.25,4.57-13.6,5.72-.69.18-1.44.35-2.21.48l.52,2.37a23,23,0,0,0,12.14,0c2.38-.66,4.87-1.66,4.87-4.17v-6Z"/><path class="cls-13" d="M377,146.16s5.22,2.38,13.15-.92c4-1.68,15.26-1.23,18.42,2.23h0c4,2.63,5.66,8.53,5.45,12.68-.3,5.94-2.93,14.16-7.9,17.91-2.74,2.07-2.87,2.31-6.55,3.46-1-.49-6.41-4.68-6.41-4.68,2.08-1.21,3.69-8.12,1.48-9.33s-3.69,3.09-3.69,3.09c-1.28-.47-3.22-1.95-2.15-4.5a7.62,7.62,0,0,0,0-5.23c-3.92.08-7.16-2.14-8.41-2.83C380.37,158,375.14,154.41,377,146.16Z"/><path class="cls-17" d="M372.52,159.56l9,2.2a1.52,1.52,0,0,1,1.16,1.53l-.27,8.51a1.21,1.21,0,0,1-1.52,1.14l-8.14-2.12Z"/><polygon class="cls-18" points="372.52 159.56 373.8 159.87 373.86 171.1 372.8 170.81 372.52 159.56"/><path class="cls-19" d="M382,165s21.85,1.47,32-6.82a4.43,4.43,0,0,1-.35,5.45s-12.66,7.29-31.75,5.56Z"/><path class="cls-24" d="M30.4,372.21A21.77,21.77,0,0,0,25.45,376l-6.09,6.68v8.46h0a21.28,21.28,0,0,0,11,18.66l101.68,56.57a54.39,54.39,0,0,0,28.74,6.81V299.56Z"/><path class="cls-25" d="M381.72,328.36a21.5,21.5,0,0,0-6.38-5.46L274.57,266a54.42,54.42,0,0,0-53.24-.15l-60.5,33.7V473.15A54.31,54.31,0,0,0,185,466.33L375.23,360.4a21.29,21.29,0,0,0,11-19.08v-7.69Z"/><path id="_Path_" data-name="&lt;Path&gt;" class="cls-26" d="M30.4,365,221.33,258.61a54.43,54.43,0,0,1,53.24.15l100.76,56.88a21.49,21.49,0,0,1-.11,37.49L185,459.07a54.41,54.41,0,0,1-52.95,0L30.41,402.51A21.49,21.49,0,0,1,30.4,365Z"/><path class="cls-4" d="M241.25,450.26a5.69,5.69,0,0,0-1.27,1l-1.55,1.71v2.17h0a5.45,5.45,0,0,0,2.82,4.78l26,14.48a13.85,13.85,0,0,0,7.36,1.74V431.66Z"/><path class="cls-4" d="M331.2,439a5.48,5.48,0,0,0-1.63-1.41l-25.8-14.56a13.92,13.92,0,0,0-13.63,0l-15.49,8.63v44.45a13.8,13.8,0,0,0,6.2-1.74l48.69-27.12a5.47,5.47,0,0,0,2.83-4.89v-2Z"/><path id="_Path_2" data-name="&lt;Path&gt;" class="cls-4" d="M241.25,448.4l48.88-27.23a13.93,13.93,0,0,1,13.63,0l25.8,14.56a5.51,5.51,0,0,1,0,9.61L280.84,472.5a13.91,13.91,0,0,1-13.56,0l-26-14.48A5.51,5.51,0,0,1,241.25,448.4Z"/><path class="cls-4" d="M279,488a5.92,5.92,0,0,0-1.26,1l-1.57,1.71v2.18h0a5.48,5.48,0,0,0,2.84,4.78l26,14.48a14.08,14.08,0,0,0,7.36,1.74V469.4Z"/><path class="cls-4" d="M368.93,476.77a5.4,5.4,0,0,0-1.64-1.39L341.5,460.8a14,14,0,0,0-13.63,0l-15.49,8.63v44.45a14.18,14.18,0,0,0,6.2-1.74L367.27,485a5.43,5.43,0,0,0,2.82-4.88v-2Z"/><path id="_Path_3" data-name="&lt;Path&gt;" class="cls-4" d="M279,486.15l48.89-27.23a13.94,13.94,0,0,1,13.63,0l25.8,14.58a5.5,5.5,0,0,1,0,9.59l-48.7,27.14a14,14,0,0,1-13.56,0l-26-14.5A5.5,5.5,0,0,1,279,486.15Z"/><path class="cls-4" d="M316.71,525.73a5.67,5.67,0,0,0-1.27,1l-1.56,1.71v2.16h0a5.48,5.48,0,0,0,2.83,4.78l26,14.48a13.81,13.81,0,0,0,7.36,1.74V507.13Z"/><path class="cls-4" d="M406.67,514.51a5.31,5.31,0,0,0-1.63-1.4l-25.8-14.56a13.93,13.93,0,0,0-13.63,0l-15.49,8.63v44.44a13.74,13.74,0,0,0,6.2-1.74L405,522.71a5.47,5.47,0,0,0,2.82-4.89v-2Z"/><path id="_Path_4" data-name="&lt;Path&gt;" class="cls-4" d="M316.71,523.88l48.89-27.23a13.92,13.92,0,0,1,13.63,0L405,511.25a5.51,5.51,0,0,1,0,9.61L356.31,548a14,14,0,0,1-13.56,0l-26-14.48A5.51,5.51,0,0,1,316.71,523.88Z"/><polygon class="cls-27" points="0.6 317.16 109.69 256.38 109.69 42.42 0.6 103.12 0.6 317.16"/><polygon class="cls-15" points="32.06 336.04 141.16 275.25 141.16 61.29 32.06 122 32.06 336.04"/><polygon class="cls-26" points="44.61 314.41 128.61 267.6 128.61 255.72 44.61 302.46 44.61 314.41"/><path class="cls-28" d="M51.37,132.29,78,117.45a6.55,6.55,0,0,1,9.74,5.73v39.66L77.49,151.5,58.73,161.9a7.58,7.58,0,0,1-11.26-6.63V138.91A7.58,7.58,0,0,1,51.37,132.29Z"/><polygon class="cls-26" points="52.6 139.74 52.31 139.22 81.91 122.3 82.19 122.81 52.6 139.74"/><polygon class="cls-26" points="52.6 145.63 52.31 145.12 81.91 128.18 82.19 128.7 52.6 145.63"/><polygon class="cls-26" points="52.6 151.51 52.31 151 81.91 134.07 82.19 134.59 52.6 151.51"/><polygon class="cls-26" points="52.6 157.62 52.31 157.1 81.91 140.17 82.19 140.69 52.6 157.62"/><path class="cls-29" d="M51.37,239.66,78,224.81a6.55,6.55,0,0,1,9.74,5.73V270.2L77.49,258.87l-18.76,10.4a7.58,7.58,0,0,1-11.26-6.63V246.28A7.58,7.58,0,0,1,51.37,239.66Z"/><polygon class="cls-26" points="52.6 247.1 52.31 246.59 81.91 229.66 82.19 230.18 52.6 247.1"/><polygon class="cls-26" points="52.6 252.99 52.31 252.48 81.91 235.55 82.19 236.06 52.6 252.99"/><polygon class="cls-26" points="52.6 258.88 52.31 258.37 81.91 241.44 82.19 241.95 52.6 258.88"/><polygon class="cls-26" points="52.6 264.99 52.31 264.47 81.91 247.54 82.19 248.05 52.6 264.99"/><path class="cls-30" d="M119.73,158.08,93.05,172.93a7.58,7.58,0,0,0-3.89,6.63v37l9.5-12.85,20.52-11.53,2.26-1.28a15.83,15.83,0,0,0,8-13.77V163.81A6.55,6.55,0,0,0,119.73,158.08Z"/><polygon class="cls-26" points="94.29 180.38 94 179.86 123.59 162.94 123.88 163.45 94.29 180.38"/><rect class="cls-26" x="91.9" y="177.25" width="34.09" height="0.59" transform="translate(-73.68 77.34) rotate(-29.71)"/><polygon class="cls-26" points="94.29 192.15 94 191.64 123.59 174.71 123.88 175.22 94.29 192.15"/><rect class="cls-26" x="91.9" y="189.24" width="34.09" height="0.59" transform="translate(-79.99 79.54) rotate(-29.9)"/><path class="cls-13" d="M216.32,347.19s-.31,7.31-4,9.26-13.46,8.86-11.35,12,9.34,5.93,17,1.7,12-8,14.32-9.46,0-11.82-.47-16.37S216.32,347.19,216.32,347.19Z"/><path class="cls-31" d="M193,233s-11.31,58.78-11.31,62,30,35.63,30,35.63l3.84-28-12-14.3,9.39-31.92,3.58-28.92-8.25-11.39L193,220.34Z"/><path class="cls-32" d="M232.7,227.51s-.61,58.24-.61,66,2.6,53.32,2.6,53.32-2.92,6.5-21.45,2.93l-4.58-55.92-.46-45.57v-13Z"/><path class="cls-31" d="M212.89,231.11s-9.73,1.79-18.71-2.44l1.26-4.88,17.45,2.33Z"/><path class="cls-10" d="M252.39,240.54s-.22,6.21,0,8.71c.43,4.87-1.57,9.54-3.31,10.84s-5.44,2.28-6.88,1.46,1.35-5.33,1.9-7.53c1.19-4.78,0-6.33,0-6.34a14.48,14.48,0,0,1-.93,1.82c-.61,1.27-1.13,2.57-1.69,3.87a.53.53,0,0,1-.19.27.35.35,0,0,1-.39-.07c-1.37-1.18-1.08-4.2-.32-5.56s2.88-11.37,2.88-11.37Z"/><path class="cls-10" d="M136,226.2a4.86,4.86,0,0,0,1.51-.9c.45-.49-.21-.54-.72-.51-1.4.08-2.76.49-4.18.52-.42,0-1.22-.22-.74-.75,1.36-1.52,3.84-2.05,5.74-2.56a30.38,30.38,0,0,1,4.06-.81c.73-.09,1.46-.16,2.19-.2.42,0,1.34.14,1.7-.12a4.46,4.46,0,0,0,.46-.35l5.15,7a18.54,18.54,0,0,1-2.44,2.75,12.52,12.52,0,0,1-6.15,3.51c-1.64.51-2.63,1.6-3.9,2.76s-1.32,2.76-3,3.36-5.26-2.61-5.29-6.41c0-2,1.27-3.74,2.61-5.06a14.91,14.91,0,0,1,2.33-1.87A5.67,5.67,0,0,1,136,226.2Z"/><path class="cls-4" d="M254,237.66v5.29s-7.72.32-13.08-2.64v-5.49Z"/><path class="cls-4" d="M154.24,227.89l-4,3.47s-5.32-5.61-6.61-11.6l4.13-3.61Z"/><path class="cls-33" d="M218.45,143.73l-1,1.39-16.29,7.8-1.34-5.52A25,25,0,0,1,218.45,143.73Z"/><path class="cls-14" d="M216.93,138.95a41.2,41.2,0,0,0,1.14,7.32l-6.95,7.8-6,5.36h-3.81L200.27,155s1.46-9.27.57-12.6Z"/><path class="cls-34" d="M189.3,152.18S178.74,185,174.84,193.43l-29.26,23.66a16.32,16.32,0,0,0,7.8,12.35l30.56-21.78,4.95-8.25L193,165.63Z"/><path class="cls-35" d="M213.2,227.17s-7.59,1.73-17.34-2.6L193,152.18l8.56,1.76,8.23-1.44L220,146.91l3.37,5.26-4.82,55.49Z"/><path class="cls-34" d="M198.53,163.5s-2.24,34.63-1.15,74.29a22.58,22.58,0,0,1-7.15-3.47s-2.83-49.27-.92-82.14l10.42-3.61-.25,3Z"/><polygon class="cls-36" points="218.45 143.74 220.58 147.4 209.48 159.43 204.65 153.37 218.45 143.74"/><path class="cls-34" d="M241.48,158.6s-5.18-5.49-20.9-11.19c0,0-12,19.77-9,92.57,0,0,20.51-2.83,23.54-5.22C235.09,234.75,233.89,176.91,241.48,158.6Z"/><path class="cls-10" d="M220.61,132.94S218.8,146,206.91,146.79c-13.72.91-15.76-16.95-14.58-25.47,1.1-8,9.9-17.94,19.8-12.62C219.55,112.69,222.54,120.94,220.61,132.94Z"/><path class="cls-13" d="M207.62,105.15s12.06-.29,15.75,14.41c0,0,2.84,12.24-5.82,21.07,0,0-.1-5.16-.86-6.1s1.71-4.06,1.3-6-.95-5.5-3.06-3.58l-.75.88a1.09,1.09,0,0,1-1.92-.74,6.88,6.88,0,0,0-.93-4.15c-1.71-2.2-9.9,5.61-19.28,4.54,0,0-2.46,0-2.44-3.61C189.61,121.86,191.58,103,207.62,105.15Z"/><polygon class="cls-36" points="204.65 153.37 198.91 158.46 199.82 147.4 204.65 153.37"/><polygon class="cls-16" points="204.65 153.37 200.44 157.1 202.16 160.17 205.93 160.58 208.32 157.97 204.65 153.37"/><polygon class="cls-16" points="202.16 160.17 198.91 208.36 202.46 215.67 206.71 209.17 205.93 160.58 202.16 160.17"/><polygon class="cls-37" points="228.37 176.46 235.52 201.59 236.12 190.81 228.37 176.46"/><path class="cls-34" d="M242.61,159.84s10,27.24,12,43.71V240s-8,.43-14.09-2.81c0,0,1.73-37.93-12.14-60.69C228.37,176.46,232.21,147.13,242.61,159.84Z"/><path class="cls-17" d="M208.88,128c-9.93,1.48-14.63-.23-16.32-1.49a1.06,1.06,0,0,0-1.33.15l-6.54,3.66,19.68,11.44,6.36-3.91a1.16,1.16,0,0,0,.23-1.14l-1-8.18A.94.94,0,0,0,208.88,128Z"/><path class="cls-18" d="M202.52,131.78,185.34,130a.63.63,0,0,0-.76.72l1.05,8.19a1.39,1.39,0,0,0,1.12,1l17,2a.61.61,0,0,0,.73-.7l-.81-8.44A1.47,1.47,0,0,0,202.52,131.78Z"/><path class="cls-19" d="M210.07,129.52S219,124,222.68,117.59a3.22,3.22,0,0,1,1.06,3.33s-5.31,8.34-13.26,11.95Z"/></g></g></g></svg>